<?xml version="1.0" encoding="UTF-8" standalone="no"?>
<!-- Created with Inkscape (http://www.inkscape.org/) -->

<svg
   width="1024"
   height="1024"
   viewBox="0 0 270.93335 270.93333"
   version="1.1"
   id="svg1"
   xml:space="preserve"
   inkscape:version="1.4.3 (fcd0343856, 2026-01-01)"
   sodipodi:docname="icon.svg"
   xmlns:inkscape="http://www.inkscape.org/namespaces/inkscape"
   xmlns:sodipodi="http://sodipodi.sourceforge.net/DTD/sodipodi-0.dtd"
   xmlns="http://www.w3.org/2000/svg"
   xmlns:svg="http://www.w3.org/2000/svg"><sodipodi:namedview
     id="namedview1"
     pagecolor="#ffffff"
     bordercolor="#000000"
     borderopacity="0.25"
     inkscape:showpageshadow="2"
     inkscape:pageopacity="0.0"
     inkscape:pagecheckerboard="0"
     inkscape:deskcolor="#d1d1d1"
     inkscape:document-units="px"
     inkscape:zoom="1.0823864"
     inkscape:cx="521.07087"
     inkscape:cy="513.67979"
     inkscape:current-layer="layer1" /><defs
     id="defs1"><rect
       x="223.58005"
       y="334.44619"
       width="259.61155"
       height="243.90551"
       id="rect4" /></defs><g
     inkscape:label="Layer 1"
     inkscape:groupmode="layer"
     id="layer1"><g
       id="svgg"
       transform="matrix(0.88630959,0,0,0.88630959,-44.847993,-43.137723)"><path
         id="path0"
         d="m 255.273,62.746 c -19.58293,3.447893 -38.92792,11.543716 -53.76398,24.818098 2.83907,-0.301086 12.25911,1.606394 8.69274,10.018804 -2.16746,13.469758 0.58768,27.007018 -0.57634,40.621578 -0.82027,33.09823 -0.0269,66.21527 -0.93466,99.27711 -3.81363,13.25877 -22.98472,2.67906 -32.09515,12.09914 -21.95931,9.95983 -34.53557,38.40488 -22.73927,60.43859 12.94551,26.88331 48.95424,35.45239 74.58269,22.36473 18.03518,-8.07919 28.63858,-27.78361 27.17609,-47.23439 -0.29383,-24.71186 -1.01078,-49.48127 0.52976,-74.16991 24.89879,-10.26688 44.98684,-31.00021 57.08614,-54.83814 12.35795,-24.51493 14.00176,-58.334603 -7.33294,-78.520556 C 292.6407,64.576074 273.14534,61.371844 255.273,62.746 Z m -20.338,6.044 c -3.74393,2.124626 1.30589,-2.045832 0,0 z m -36.248,20.153 c -1.02318,2.122526 2.41711,-0.537525 0,0 z m 58.172,5.381 c 27.54921,12.46357 39.11954,47.4197 28.8704,75.00126 -5.054,14.04644 -13.76975,27.53823 -25.88148,36.38805 -8.91331,1.29879 -2.17401,-17.08033 -4.26523,-24.40679 -0.7836,-24.19875 1.14769,-48.39667 -0.21165,-72.58052 3.28761,-4.27943 -3.13049,-10.96505 1.48796,-14.402 z m -135.863,0.821 c -5.7673,11.68992 -4.89877,35.41427 13.79071,30.14715 19.42606,-0.38178 38.89526,1.00786 58.28654,-0.68378 4.43221,-12.00485 5.68727,-35.058236 -13.65171,-30.01741 C 159.94602,94.457824 140.45877,94.278354 120.996,95.145 Z M 322.07,123.01 c -1.29837,3.39857 0.20547,-4.05415 0,0 z m -66.701,16.524 c -0.4345,-4.29917 0.51009,-7.18156 0,0 z M 79.048,149.805 c -2.959496,10.26111 -6.749303,32.60432 10.608765,29.38811 33.978955,-0.57872 67.966815,-0.44188 101.945235,0.10388 6.23781,-8.62377 7.47913,-31.57073 -7.60262,-30.05429 -34.97363,0.27099 -69.96994,-0.59713 -104.95138,0.5623 z m 130.603,27.636 c -0.90929,-1.14283 1.35334,-3.34522 0,0 z m 64.97,13.943 c -2.54937,4.24963 0.38772,-2.40415 0,0 z M 91.406,203.938 c -3.611147,8.96948 -7.281959,30.13216 7.163904,29.71283 31.560696,-0.22639 63.132376,0.65751 94.684096,-0.43283 5.16134,-12.00275 4.44016,-35.64897 -14.36303,-28.95662 -29.15693,-0.56401 -58.3257,-0.96829 -87.48497,-0.32338 z m 171.044,0.261 c -2.75631,5.55503 -1.1554,-1.73265 0,0 z m -53.179,22.841 c -0.87182,-3.06724 0.90055,-3.38572 0,0 z m -19.623,49.913 c 14.74931,-3.49891 31.34977,13.8161 21.87473,27.65825 -8.94816,14.24997 -34.93429,11.87651 -38.7955,-5.43263 -2.528,-10.61035 6.71579,-20.83749 16.92077,-22.22562 z"
         stroke="none"
         fill="#848484"
         fill-rule="evenodd" /></g></g></svg>
